<svg width="225" height="183" viewBox="0 0 225 183" fill="none" xmlns="http://www.w3.org/2000/svg">
<circle cx="109" cy="83.0605" r="75" fill="#EBF3FF"/>
<path d="M35.8143 76.8057L36.5061 77.0955L36.9417 76.0557H35.8143V76.8057ZM28.6035 94.0186L27.9118 93.7288L27.0207 95.8559L28.9925 94.6599L28.6035 94.0186ZM56.9816 76.8057V76.0557H56.7719L56.5926 76.1644L56.9816 76.8057ZM9.75 21.04C9.75 13.7001 15.7001 7.75 23.04 7.75V6.25C14.8717 6.25 8.25 12.8717 8.25 21.04H9.75ZM9.75 62.7657V21.04H8.25V62.7657H9.75ZM23.04 76.0557C15.7001 76.0557 9.75 70.1055 9.75 62.7657H8.25C8.25 70.934 14.8717 77.5557 23.04 77.5557V76.0557ZM35.8143 76.0557H23.04V77.5557H35.8143V76.0557ZM29.2953 94.3084L36.5061 77.0955L35.1226 76.5159L27.9118 93.7288L29.2953 94.3084ZM56.5926 76.1644L28.2146 93.3773L28.9925 94.6599L57.3706 77.4469L56.5926 76.1644ZM104.45 76.0557H56.9816V77.5557H104.45V76.0557ZM117.74 62.7657C117.74 70.1055 111.79 76.0557 104.45 76.0557V77.5557C112.618 77.5557 119.24 70.934 119.24 62.7657H117.74ZM117.74 21.04V62.7657H119.24V21.04H117.74ZM104.45 7.75C111.79 7.75 117.74 13.7001 117.74 21.04H119.24C119.24 12.8717 112.618 6.25 104.45 6.25V7.75ZM23.04 7.75H104.45V6.25H23.04V7.75Z" fill="black"/>
<path d="M39.3316 44.9824C30.2407 51.691 32.4851 61.9473 34.7436 66.2368L94.6099 61.7439C94.075 49.3243 87.1075 48.6673 84.9499 43.0175C82.7923 37.3676 88.2158 29.9556 88.1026 27.3283C87.9894 24.7011 88.731 14.1407 75.0863 14.0106C61.4416 13.8805 60.1195 22.073 55.7336 31.3547C51.3478 40.6363 50.6952 36.5966 39.3316 44.9824Z" fill="black"/>
<path fill-rule="evenodd" clip-rule="evenodd" d="M99.9265 76.792L96.9351 65.7663C95.728 61.3174 92.9475 57.4223 88.76 55.4951C83.8301 53.226 76.4185 50.543 68.0199 49.9539C61.7344 49.5131 56.2363 50.1956 51.7697 51.2522C43.0887 53.3057 37.2038 60.5816 33.6479 68.7628L31.0424 74.7571L30.1939 76.792H35.8136L28.603 94.0044L56.9802 76.792H99.9265Z" fill="#EBF3FF"/>
<path d="M99.9265 76.792V77.542H100.907L100.65 76.5956L99.9265 76.792ZM96.9351 65.7663L96.2112 65.9627V65.9627L96.9351 65.7663ZM88.76 55.4951L89.0736 54.8138H89.0736L88.76 55.4951ZM68.0199 49.9539L67.9675 50.7021L68.0199 49.9539ZM51.7697 51.2522L51.5971 50.5223L51.7697 51.2522ZM33.6479 68.7628L34.3357 69.0618L33.6479 68.7628ZM31.0424 74.7571L30.3545 74.4581L30.3502 74.4684L31.0424 74.7571ZM30.1939 76.792L29.5017 76.5034L29.0686 77.542H30.1939V76.792ZM35.8136 76.792L36.5054 77.0818L36.9409 76.042H35.8136V76.792ZM28.603 94.0044L27.9113 93.7146L27.0202 95.8416L28.992 94.6456L28.603 94.0044ZM56.9802 76.792V76.042H56.7705L56.5912 76.1507L56.9802 76.792ZM100.65 76.5956L97.6589 65.5699L96.2112 65.9627L99.2027 76.9884L100.65 76.5956ZM97.6589 65.5699C96.407 60.9556 93.5048 56.8532 89.0736 54.8138L88.4465 56.1764C92.3901 57.9914 95.0491 61.6793 96.2112 65.9627L97.6589 65.5699ZM89.0736 54.8138C84.0952 52.5224 76.5922 49.8034 68.0724 49.2058L67.9675 50.7021C76.2448 51.2827 83.565 53.9296 88.4465 56.1764L89.0736 54.8138ZM68.0724 49.2058C61.7019 48.7589 56.1275 49.4506 51.5971 50.5223L51.9424 51.982C56.3452 50.9405 61.7669 50.2672 67.9675 50.7021L68.0724 49.2058ZM51.5971 50.5223C42.5841 52.6544 36.5587 60.1844 32.96 68.4638L34.3357 69.0618C37.849 60.9788 43.5934 53.9571 51.9424 51.982L51.5971 50.5223ZM32.96 68.4638L30.3546 74.4581L31.7303 75.056L34.3357 69.0618L32.96 68.4638ZM30.3502 74.4684L29.5017 76.5034L30.8861 77.0807L31.7347 75.0457L30.3502 74.4684ZM30.1939 77.542H35.8136V76.042H30.1939V77.542ZM35.1219 76.5022L27.9113 93.7146L29.2948 94.2941L36.5054 77.0818L35.1219 76.5022ZM28.992 94.6456L57.3691 77.4333L56.5912 76.1507L28.2141 93.3631L28.992 94.6456ZM56.9802 77.542H99.9265V76.042H56.9802V77.542Z" fill="black"/>
<path d="M88.103 27.3275C88.5692 24.8189 87.8279 22.793 87.399 22.0936C87.1704 22.3427 86.0482 24.0661 82.9639 24.6775C81.5375 24.9602 78.2077 25.3609 76.9084 28.5275C76.6419 29.1771 76.3519 29.6735 76.0586 30.049C75.0406 31.352 73.446 30.2693 72.1564 29.2345C70.7528 28.1081 68.9797 27.5266 67.3857 29.6556C65.5284 32.1362 68.0849 35.422 69.1237 36.6821C69.287 36.8803 69.3738 37.1286 69.3688 37.3853L69.3022 40.8193C68.3652 46.8417 62.7154 48.9993 59.8905 50.0781C60.9872 51.4666 64.4785 54.379 69.6704 54.9211C74.8622 55.4631 76.244 53.8403 76.2859 52.9611L75.9258 44.6018C83.6407 45.9444 84.5392 40.8808 84.8165 39.9117C85.2325 38.4581 85.1913 37.5028 86.614 37.2022C88.0368 36.9016 89.2104 36.3725 89.1693 35.4172C89.1281 34.4618 87.5202 30.4633 88.103 27.3275Z" fill="white" stroke="black" stroke-width="1.5"/>
<path fill-rule="evenodd" clip-rule="evenodd" d="M198.729 89.043C206.484 89.043 212.769 95.3289 212.769 103.083V144.809C212.769 152.563 206.484 158.849 198.729 158.849H185.955L193.166 176.062L164.788 158.849H117.32C109.566 158.849 103.28 152.563 103.28 144.809V103.083C103.28 95.3289 109.566 89.043 117.32 89.043H198.729Z" fill="#F6F6F6"/>
<mask id="mask0_201_3919" style="mask-type:alpha" maskUnits="userSpaceOnUse" x="103" y="89" width="110" height="88">
<path fill-rule="evenodd" clip-rule="evenodd" d="M198.73 89.043C206.484 89.043 212.77 95.3289 212.77 103.083V144.809C212.77 152.563 206.484 158.849 198.73 158.849H185.955L193.166 176.062L164.788 158.849H117.32C109.566 158.849 103.28 152.563 103.28 144.809V103.083C103.28 95.3289 109.566 89.043 117.32 89.043H198.73Z" fill="#F6F6F6"/>
</mask>
<g mask="url(#mask0_201_3919)">
<path d="M146.071 131.834L132.684 159.087V174.387H196.035V159.087L195.597 144.351C195.12 134.823 190.159 126.084 182.221 120.792L171.89 113.904L162.805 114.382L156.185 120.04C151.869 123.728 148.799 126.855 146.071 131.834Z" fill="#F6F6F6" stroke="black" stroke-width="1.5"/>
<path fill-rule="evenodd" clip-rule="evenodd" d="M146.593 130.911H191.666C191.375 130.402 191.07 129.902 190.75 129.411H147.517C147.204 129.893 146.896 130.392 146.593 130.911ZM151.708 124.182H186.432C185.894 123.663 185.335 123.162 184.757 122.682H153.227C152.702 123.179 152.196 123.677 151.708 124.182ZM194.322 137.061H143.503L142.767 138.561H194.738C194.612 138.056 194.474 137.556 194.322 137.061ZM195.607 144.711H139.746L139.009 146.211H195.652L195.607 144.711ZM195.835 152.361H135.988L135.251 153.861H195.879L195.835 152.361ZM196.035 160.011H132.684V161.511H196.035V160.011ZM196.035 167.661H132.684V169.161H196.035V167.661Z" fill="black"/>
<path d="M144.875 160.521L145.282 153.35L137.942 148.568L131.727 160.521H144.875Z" fill="white" stroke="black" stroke-width="1.5"/>
<path d="M181.451 179.167V153.109H196.034V179.167H181.451Z" fill="white" stroke="black" stroke-width="1.5"/>
</g>
<path d="M174.683 104.981C173.722 106.118 173.162 107.508 173.002 108.061C167.432 107.682 166.04 100.954 166.04 97.6381C161.718 93.6902 153.507 85.3681 155.236 83.6626C157.396 81.5307 161.718 80.5832 167.72 81.2939C173.722 82.0045 179.485 84.6101 179.965 91.9532C180.445 99.2962 175.883 103.56 174.683 104.981Z" fill="black" stroke="black" stroke-width="1.5"/>
<path d="M157.793 118.867V109.985C156.129 109.985 152.803 110.225 151.14 108.065C149.477 105.905 150.901 101.233 150.664 100.753C150.601 100.624 147.575 99.5523 148.051 98.3521C148.346 97.6068 150.044 95.2412 151.456 93.2842C152.179 92.2819 152.519 91.0683 152.734 89.8512C153.257 86.8886 154.865 84.592 155.654 84.0605C156.842 86.461 161.595 88.6214 168.01 89.3415L166.584 95.1026C169.198 93.4223 171.574 93.6624 171.812 96.7829C172.013 99.4265 167.556 100.384 167.773 102.784C168.061 105.99 171.574 108.145 173 108.785V115.266C172.129 115.986 169.841 118.767 165.872 120.067C161.04 121.65 158.022 121.036 156.2 120.316L157.793 118.867Z" fill="white" stroke="black" stroke-width="1.5" stroke-linejoin="round"/>
<path d="M179.376 89.0605H200.511C207.408 89.0605 213 94.625 213 101.489V146.423C213 153.287 207.408 158.852 200.511 158.852H186.061L193.306 176.061L164.796 158.852H115.489C108.592 158.852 103 153.287 103 146.423V101.489C103 94.625 108.592 89.0605 115.489 89.0605H152.956" stroke="black" stroke-width="1.5"/>
<circle cx="38" cy="112.061" r="5" fill="black"/>
<circle cx="58" cy="112.061" r="5" fill="black"/>
<circle cx="79" cy="112.061" r="5" fill="black"/>
<path d="M142.024 48.5241C142.174 48.0634 142.826 48.0634 142.976 48.5241L144.072 51.8974C144.139 52.1034 144.331 52.2429 144.547 52.2429H148.094C148.578 52.2429 148.78 52.8627 148.388 53.1474L145.518 55.2323C145.343 55.3596 145.27 55.5853 145.337 55.7913L146.433 59.1646C146.583 59.6253 146.055 60.0084 145.663 59.7237L142.794 57.6388C142.619 57.5115 142.381 57.5115 142.206 57.6388L139.337 59.7237C138.945 60.0084 138.417 59.6253 138.567 59.1646L139.663 55.7913C139.73 55.5853 139.657 55.3596 139.482 55.2323L136.612 53.1474C136.22 52.8627 136.422 52.2429 136.906 52.2429H140.453C140.669 52.2429 140.861 52.1034 140.928 51.8974L142.024 48.5241Z" fill="black" stroke="black" stroke-width="0.5"/>
<path d="M159.024 48.5241C159.174 48.0634 159.826 48.0634 159.976 48.5241L161.072 51.8974C161.139 52.1034 161.331 52.2429 161.547 52.2429H165.094C165.578 52.2429 165.78 52.8627 165.388 53.1474L162.518 55.2323C162.343 55.3596 162.27 55.5853 162.337 55.7913L163.433 59.1646C163.583 59.6253 163.055 60.0084 162.663 59.7237L159.794 57.6388C159.619 57.5115 159.381 57.5115 159.206 57.6388L156.337 59.7237C155.945 60.0084 155.417 59.6253 155.567 59.1646L156.663 55.7913C156.73 55.5853 156.657 55.3596 156.482 55.2323L153.612 53.1474C153.22 52.8627 153.422 52.2429 153.906 52.2429H157.453C157.669 52.2429 157.861 52.1034 157.928 51.8974L159.024 48.5241Z" fill="black" stroke="black" stroke-width="0.5"/>
<path d="M175.528 48.4237C175.683 47.9753 176.317 47.9753 176.472 48.4237L177.68 51.9067C177.749 52.1079 177.939 52.2429 178.152 52.2429H181.986C182.478 52.2429 182.674 52.8791 182.268 53.1562L179.222 55.2304C179.036 55.3575 178.958 55.594 179.031 55.8074L180.208 59.2007C180.365 59.6557 179.852 60.0488 179.454 59.7777L176.281 57.617C176.112 57.5013 175.888 57.5013 175.719 57.617L172.546 59.7777C172.148 60.0488 171.635 59.6557 171.792 59.2007L172.969 55.8074C173.042 55.594 172.964 55.3575 172.778 55.2304L169.732 53.1562C169.326 52.8791 169.522 52.2429 170.014 52.2429H173.848C174.061 52.2429 174.251 52.1079 174.32 51.9067L175.528 48.4237Z" fill="black" stroke="black" stroke-width="0.5"/>
<path d="M192.024 48.5241C192.174 48.0634 192.826 48.0634 192.976 48.5241L194.072 51.8974C194.139 52.1034 194.331 52.2429 194.547 52.2429H198.094C198.578 52.2429 198.78 52.8627 198.388 53.1474L195.518 55.2323C195.343 55.3596 195.27 55.5853 195.337 55.7913L196.433 59.1646C196.583 59.6253 196.055 60.0084 195.663 59.7237L192.794 57.6388C192.619 57.5115 192.381 57.5115 192.206 57.6388L189.337 59.7237C188.945 60.0084 188.417 59.6253 188.567 59.1646L189.663 55.7913C189.73 55.5853 189.657 55.3596 189.482 55.2323L186.612 53.1474C186.22 52.8627 186.422 52.2429 186.906 52.2429H190.453C190.669 52.2429 190.861 52.1034 190.928 51.8974L192.024 48.5241Z" fill="black" stroke="black" stroke-width="0.5"/>
<path d="M208.024 48.5241C208.174 48.0634 208.826 48.0634 208.976 48.5241L210.072 51.8974C210.139 52.1034 210.331 52.2429 210.547 52.2429H214.094C214.578 52.2429 214.78 52.8627 214.388 53.1474L211.518 55.2323C211.343 55.3596 211.27 55.5853 211.337 55.7913L212.433 59.1646C212.583 59.6253 212.055 60.0084 211.663 59.7237L208.794 57.6388C208.619 57.5115 208.381 57.5115 208.206 57.6388L205.337 59.7237C204.945 60.0084 204.417 59.6253 204.567 59.1646L205.663 55.7913C205.73 55.5853 205.657 55.3596 205.482 55.2323L202.612 53.1474C202.22 52.8627 202.422 52.2429 202.906 52.2429H206.453C206.669 52.2429 206.861 52.1034 206.928 51.8974L208.024 48.5241Z" fill="black" stroke="black" stroke-width="0.5"/>
</svg>
