<svg width="1920" height="1066" viewBox="0 0 1920 1066" fill="none" xmlns="http://www.w3.org/2000/svg">
<path d="M1695.62 218.239C1699.74 216.131 1702.18 212.235 1704.52 206.465C1706.36 211.065 1708.73 215.636 1713.64 218.187C1709.04 221.261 1707.03 223.252 1704.25 230.458C1704.06 227.177 1700.53 220.789 1695.62 218.239Z" stroke="black" stroke-width="1.5"/>
<path d="M1725.91 188.029C1737.02 181.53 1743.43 169.614 1749.45 151.986C1754.74 165.972 1761.47 179.859 1774.99 187.542C1762.64 196.996 1757.28 203.101 1750.11 225.111C1749.43 215.115 1739.44 195.712 1725.91 188.029Z" stroke="black" stroke-width="1.5"/>
<path d="M2190.86 664.857C2027.13 620.093 1994.2 755.299 1973.86 837.857C1953.52 920.415 1867.97 797.683 1835.36 777.857C1815.22 767.935 1701 967.001 1298.5 938.501" stroke="black" stroke-width="1.5"/>
<circle cx="1292" cy="938" r="7" stroke="black" stroke-width="1.5"/>
<rect x="1476.64" y="858.661" width="152.646" height="152.646" rx="10" transform="rotate(-12.262 1476.64 858.661)" fill="#F6F6F6" stroke="black" stroke-width="1.5"/>
<rect x="1778.15" y="694.856" width="152.646" height="152.646" rx="10" transform="rotate(22.0424 1778.15 694.856)" fill="#EBF3FF" stroke="black" stroke-width="1.5"/>
<path d="M1652.77 872.991L1553.04 849.958C1544.86 909.5 1512.32 967.048 1497.08 988.379C1522.15 996.126 1577.83 1013.2 1600 1019.5C1633.48 961.231 1649.13 897.548 1652.77 872.991Z" fill="white" stroke="black" stroke-width="1.5"/>
<path d="M1601.67 957.612L1581.83 993.85L1571.18 990.8L1564.07 988.767L1554.13 985.921L1547.03 983.887L1537.44 981.142L1548.08 962.842L1557.32 965.469L1547.03 983.887L1554.13 985.921L1570.66 958.213L1579.89 960.84L1564.07 988.767L1571.18 990.8L1591 954.913L1601.67 957.612Z" fill="black"/>
<path d="M1544.57 946.812C1541.17 957.018 1532 972.121 1527.85 978.398L1537.44 981.142M1588.94 995.884L1581.83 993.85M1581.83 993.85L1601.67 957.612L1591 954.913L1571.18 990.8M1581.83 993.85L1571.18 990.8M1571.18 990.8L1564.07 988.767M1564.07 988.767L1579.89 960.84L1570.66 958.213L1554.13 985.921M1564.07 988.767L1554.13 985.921M1554.13 985.921L1547.03 983.887M1547.03 983.887L1557.32 965.469L1548.08 962.842L1537.44 981.142M1547.03 983.887L1537.44 981.142" stroke="black" stroke-width="1.5"/>
<path d="M1559.65 876.233L1630.84 893.507" stroke="black" stroke-width="1.5"/>
<path d="M1554.25 897.578L1624.04 914.061" stroke="black" stroke-width="1.5"/>
<path d="M1548.92 917.487L1617.96 934.652" stroke="black" stroke-width="1.5"/>
<path d="M1799.52 842.31L1773.7 793.738C1773.7 793.738 1789.43 767.387 1823.88 753.569C1857.43 740.111 1855.27 760.981 1916.71 727.889L1938.18 781.364C1882.17 807.012 1884.52 794.495 1852.43 806.327C1826.76 815.793 1806.46 834.26 1799.52 842.31Z" fill="white" stroke="black" stroke-width="1.5"/>
<path d="M1807.1 819.266L1781.28 770.694C1781.28 770.694 1797.02 744.343 1831.46 730.525C1865.01 717.067 1862.86 737.937 1924.3 704.845L1945.77 758.32C1889.76 783.969 1892.1 771.451 1860.02 783.283C1834.35 792.749 1814.05 811.216 1807.1 819.266Z" fill="white" stroke="black" stroke-width="1.5"/>
<ellipse cx="1860.33" cy="752.614" rx="20.5107" ry="12.6971" transform="rotate(-21.8789 1860.33 752.614)" fill="black" stroke="black" stroke-width="1.5"/>
<path d="M1905.08 714.647C1908.29 722.656 1918.2 726.216 1927.21 722.598C1928.46 722.097 1929.62 721.486 1930.69 720.783" stroke="black" stroke-width="1.5"/>
<path d="M1793.29 756.025C1795.25 757.552 1796.81 759.551 1797.77 761.948C1800.94 769.835 1796.43 779.097 1787.69 782.832" stroke="black" stroke-width="1.5"/>
<path d="M1798.49 803.058C1800.49 800.056 1803.49 797.54 1807.25 796.032C1815.04 792.902 1823.51 795.143 1827.74 800.989" stroke="black" stroke-width="1.5"/>
<path d="M1939.72 743.253C1938.46 743.486 1937.2 743.849 1935.95 744.35C1926.94 747.968 1922.24 757.393 1925.46 765.402C1925.65 765.868 1925.86 766.319 1926.09 766.755" stroke="black" stroke-width="1.5"/>
<path d="M25.5855 233.277L-72.6707 271.87L-46.6285 342.572L54.5986 305.09L25.5855 233.277Z" fill="#F6F6F6" stroke="black" stroke-width="1.5"/>
<path d="M-43.6699 330.131L-34.597 301.353L-6.93002 313.397L5.84054 265.682L20.1389 272.724L39.5249 134.433M39.5249 134.433L48.0739 147.791M39.5249 134.433L26.1669 142.982M72.4658 130.591L83.7721 109.421M3.98727 150.691L-17.1824 139.385" stroke="black" stroke-width="1.5"/>
<path d="M67.4045 149.237L194.49 100.89L202.721 123.019M13.8396 169.615L-117.447 219.56L-109.114 241.643M-109.114 241.643L-40.068 424.611L271.313 307.426L202.721 123.019M-109.114 241.643L9.99049 196.335M202.721 123.019L56.2037 178.755" stroke="black" stroke-width="1.5"/>
<path d="M123.644 61.6859C129.949 53.8849 131.333 43.3962 130.857 28.8253C138.567 37.6363 147.298 45.9824 159.272 47.9221C152.876 58.2291 150.654 64.1707 151.503 82.2681C148.249 75.1242 135.618 63.6256 123.644 61.6859Z" stroke="black" stroke-width="1.5"/>
<path d="M59.3722 525.305C65.6773 517.504 67.0612 507.015 66.5858 492.444C74.2959 501.255 83.0266 509.602 95.0007 511.541C88.6049 521.848 86.382 527.79 87.2315 545.887C83.9775 538.743 71.3463 527.245 59.3722 525.305Z" stroke="black" stroke-width="1.5"/>
<path d="M52.958 225.737L127.742 197.835" stroke="black" stroke-width="1.5"/>
<path d="M60.6797 248.099L136.484 219.732" stroke="black" stroke-width="1.5"/>
<path d="M70.3496 272.036L145.133 244.134" stroke="black" stroke-width="1.5"/>
<path d="M78.0713 294.398L153.875 266.032" stroke="black" stroke-width="1.5"/>
<path d="M-26.3573 392.487L-36.0283 368.55L162.99 291.454L172.105 316.877L-26.3573 392.487Z" stroke="black" stroke-width="1.5"/>
<circle cx="292.567" cy="232.504" r="2.24287" transform="rotate(-24.4887 292.567 232.504)" stroke="black" stroke-width="1.5"/>
<circle cx="78.9035" cy="409.853" r="4.48574" transform="rotate(-24.4887 78.9035 409.853)" stroke="black" stroke-width="1.5"/>
<mask id="path-32-inside-1_1901_995" fill="white">
<path d="M176.211 241.008C153.523 223.471 149.347 190.862 166.884 168.173C184.421 145.485 217.031 141.309 239.719 158.846C262.407 176.384 266.583 208.993 249.046 231.682C231.509 254.37 198.899 258.546 176.211 241.008ZM220.409 183.828C211.518 176.956 198.739 178.592 191.866 187.483C184.993 196.375 186.63 209.154 195.521 216.027C204.412 222.899 217.191 221.263 224.064 212.372C230.937 203.48 229.3 190.701 220.409 183.828Z"/>
</mask>
<path d="M176.211 241.008C153.523 223.471 149.347 190.862 166.884 168.173C184.421 145.485 217.031 141.309 239.719 158.846C262.407 176.384 266.583 208.993 249.046 231.682C231.509 254.37 198.899 258.546 176.211 241.008ZM220.409 183.828C211.518 176.956 198.739 178.592 191.866 187.483C184.993 196.375 186.63 209.154 195.521 216.027C204.412 222.899 217.191 221.263 224.064 212.372C230.937 203.48 229.3 190.701 220.409 183.828Z" fill="white" stroke="black" stroke-width="3" mask="url(#path-32-inside-1_1901_995)"/>
<mask id="path-33-inside-2_1901_995" fill="white">
<path d="M175.72 159.231C167.877 165.445 161.997 173.792 158.787 183.269C155.577 192.745 155.173 202.948 157.625 212.648L188.248 204.91C187.288 201.11 187.446 197.114 188.703 193.403C189.961 189.691 192.264 186.421 195.335 183.988L175.72 159.231Z"/>
</mask>
<path d="M175.72 159.231C167.877 165.445 161.997 173.792 158.787 183.269C155.577 192.745 155.173 202.948 157.625 212.648L188.248 204.91C187.288 201.11 187.446 197.114 188.703 193.403C189.961 189.691 192.264 186.421 195.335 183.988L175.72 159.231Z" fill="#EBF3FF" stroke="black" stroke-width="3" mask="url(#path-33-inside-2_1901_995)"/>
<path d="M156.463 206.523C157.767 216.709 162.063 226.279 168.807 234.024C175.55 241.769 184.439 247.34 194.349 250.033C204.259 252.726 214.745 252.42 224.481 249.153C234.217 245.887 242.766 239.807 249.046 231.682L224.649 212.823C222.098 216.123 218.626 218.592 214.672 219.919C210.718 221.245 206.46 221.37 202.435 220.276C198.411 219.182 194.801 216.92 192.062 213.775C189.323 210.629 187.579 206.743 187.049 202.606L156.463 206.523Z" fill="black"/>
<path d="M192.676 781.341C28.9433 736.577 -3.98445 871.783 -24.3235 954.341C-44.6625 1036.9 -130.217 914.167 -162.824 894.341C-182.962 884.418 -327.324 1073.84 -578.824 1060.34" stroke="black" stroke-width="1.5"/>
</svg>
