<svg width="161" height="131" viewBox="0 0 161 131" fill="none" xmlns="http://www.w3.org/2000/svg">
<path d="M74.8668 99.6933C77.5055 104.513 81.3167 108.59 85.948 111.546C90.5794 114.503 95.8814 116.245 101.364 116.61C106.847 116.975 112.333 115.952 117.315 113.636C122.298 111.32 126.616 107.784 129.871 103.357C133.126 98.9302 135.212 93.754 135.936 88.3073C136.661 82.8605 136.001 77.319 134.017 72.1949C132.033 67.0709 128.789 62.5297 124.585 58.9913C120.381 55.4528 115.353 53.0312 109.966 51.9503L103.536 83.997L74.8668 99.6933Z" fill="black"/>
<path d="M73.1676 95.6224C75.7295 100.029 79.3167 103.764 83.6313 106.51C88.1583 109.391 93.3397 111.091 98.6964 111.45C104.053 111.81 109.412 110.819 114.278 108.568C119.144 106.318 123.359 102.881 126.535 98.5762C129.71 94.2711 131.744 89.2364 132.447 83.9375C133.151 78.6386 132.501 73.2462 130.56 68.2588C128.618 63.2714 125.445 58.8497 121.336 55.4028C117.418 52.1166 112.769 49.8176 107.782 48.6952L101.528 79.865L101.459 80.2084L101.151 80.376L73.1676 95.6224Z" fill="white" stroke="black" stroke-width="1.5"/>
<path d="M99.5392 104.574C103.664 104.851 107.791 104.088 111.538 102.355C115.285 100.622 118.531 97.9752 120.977 94.6594C123.423 91.3436 124.989 87.4657 125.531 83.3843C126.073 79.3029 125.573 75.1496 124.077 71.3084C122.582 67.4671 120.138 64.062 116.974 61.4077" stroke="black" stroke-width="1.5"/>
<mask id="path-4-inside-1_242_680" fill="white">
<path d="M10.5 34.6046L-nan -nanL10.5 34.6046C35.4029 20.8479 65.6264 20.8479 90.5292 34.6046L-nan -nanL90.5292 34.6046V103.437L50.5146 127.5L10.5 103.437V34.6046Z"/>
</mask>
<path d="M10.5 34.6046L-nan -nanL10.5 34.6046C35.4029 20.8479 65.6264 20.8479 90.5292 34.6046L-nan -nanL90.5292 34.6046V103.437L50.5146 127.5L10.5 103.437V34.6046Z" fill="white"/>
<path d="M90.5292 103.437L91.3023 104.722L92.0292 104.285V103.437H90.5292ZM10.5 103.437H9V104.285L9.72697 104.722L10.5 103.437ZM50.5146 127.5L49.7416 128.785L50.5146 129.25L51.2877 128.785L50.5146 127.5ZM89.0292 34.6046V103.437H92.0292V34.6046H89.0292ZM12 103.437V34.6046H9V103.437H12ZM89.7562 102.151L49.7416 126.215L51.2877 128.785L91.3023 104.722L89.7562 102.151ZM51.2877 126.215L11.273 102.151L9.72697 104.722L49.7416 128.785L51.2877 126.215ZM11.2253 35.9176C35.6768 22.4103 65.3525 22.4103 89.8039 35.9176L91.2546 33.2916C65.9003 19.2856 35.129 19.2856 9.77469 33.2916L11.2253 35.9176Z" fill="black" mask="url(#path-4-inside-1_242_680)"/>
<mask id="path-6-inside-2_242_680" fill="white">
<path d="M15.5 38.9133L-nan -nanL15.5 38.9133C37.2709 26.8375 63.7291 26.8375 85.5 38.9133L-nan -nanL85.5 38.9133V99.3658L50.5 120.5L15.5 99.3658V38.9133Z"/>
</mask>
<path d="M15.5 38.9133L-nan -nanL15.5 38.9133C37.2709 26.8375 63.7291 26.8375 85.5 38.9133L-nan -nanL85.5 38.9133V99.3658L50.5 120.5L15.5 99.3658V38.9133Z" fill="white"/>
<path d="M85.5 99.3658L86.2754 100.65L87 100.212V99.3658H85.5ZM15.5 99.3658H14V100.212L14.7246 100.65L15.5 99.3658ZM50.5 120.5L49.7247 121.784L50.5 122.252L51.2753 121.784L50.5 120.5ZM84 38.9133V99.3658H87V38.9133H84ZM17 99.3658V38.9133H14V99.3658H17ZM84.7246 98.0818L49.7247 119.216L51.2753 121.784L86.2754 100.65L84.7246 98.0818ZM51.2753 119.216L16.2754 98.0818L14.7246 100.65L49.7247 121.784L51.2753 119.216ZM16.2276 40.225C37.5459 28.4003 63.4541 28.4003 84.7724 40.225L86.2276 37.6016C64.0041 25.2747 36.9959 25.2747 14.7724 37.6016L16.2276 40.225Z" fill="black" mask="url(#path-6-inside-2_242_680)"/>
<path fill-rule="evenodd" clip-rule="evenodd" d="M47.5441 55.6605C47.8155 55.5535 48.2797 55.425 48.5868 55.3679H48.5797C48.9868 55.2965 49.4939 55.2751 50.4223 55.2893C51.415 55.3107 51.8292 55.3536 52.2435 55.4607C52.5363 55.5392 52.9576 55.6748 53.1719 55.7605C53.3862 55.8461 53.679 55.9818 53.8147 56.0603C53.9504 56.146 54.236 56.3458 54.4503 56.5029C54.6646 56.6671 54.9716 56.9883 55.1431 57.2239C55.3073 57.4595 55.5216 57.8307 55.6073 58.0448C55.7501 58.3803 55.7715 58.5588 55.7715 59.2941C55.7715 59.958 55.7358 60.2435 55.6287 60.5433C55.5573 60.7575 55.3787 61.1216 55.243 61.3571C55.1073 61.5856 54.8074 61.9639 54.5788 62.1924C54.3575 62.4279 53.9575 62.7563 53.6861 62.9276C53.4219 63.099 53.0434 63.3131 52.8505 63.3988C52.6505 63.4916 52.2363 63.6486 51.9221 63.7557C51.6078 63.8628 51.215 63.9699 51.0436 63.9984C50.8794 64.0198 50.7437 64.0555 50.7437 64.077C50.7437 64.097 50.7936 64.1856 50.8526 64.2904L50.8651 64.3125C50.9365 64.4196 51.2936 64.9407 51.665 65.469C52.0364 65.9972 52.7148 66.9324 53.179 67.5392C53.6361 68.146 54.3503 69.0454 54.7645 69.538C55.1788 70.0306 55.693 70.6088 56.3072 71.2156L56.55 70.8229C56.6857 70.6088 56.8785 70.259 56.9857 70.0591C57.0856 69.8521 57.257 69.3809 57.357 69.024C57.5142 68.4743 57.5427 68.253 57.5213 67.7533C57.4927 67.2893 57.4427 67.0538 57.2999 66.7539C57.1928 66.5255 56.9714 66.2328 56.7643 66.0544C56.5786 65.8902 56.2786 65.7046 56.1001 65.6474C55.9215 65.5832 55.6573 65.5404 55.243 65.5404V64.8265H58.745V55.4302L66.7278 55.4302C72.2187 55.4302 76.6699 59.8814 76.6699 65.3723C76.6699 70.8632 72.2187 75.3144 66.7278 75.3144L57.6499 75.3139L57.6568 75.3101C57.4022 75.3161 57.1539 75.3004 56.8142 75.2632C56.3857 75.2132 55.793 75.0847 55.4216 74.9562C55.0645 74.8348 54.5717 74.6278 53.8504 74.2281L53.2433 74.485C52.9077 74.6207 52.4863 74.7849 52.2935 74.8491C52.1078 74.9134 51.7435 75.0133 51.4721 75.0704C51.2079 75.1275 50.7008 75.206 50.3509 75.2489C49.9938 75.2846 49.4153 75.3203 49.0653 75.3203C48.7082 75.3203 48.1155 75.2846 47.7441 75.2489C47.3727 75.206 46.8085 75.1275 46.4943 75.0633C46.18 74.999 45.6301 74.8491 45.2802 74.7349C44.9231 74.6135 44.4089 74.4065 44.1375 74.2709C43.8589 74.1281 43.4447 73.8854 43.209 73.7141C42.9733 73.5499 42.552 73.1715 42.2806 72.8789C42.2414 72.8371 42.203 72.7948 42.1654 72.7521C40.3582 74.3635 37.9854 75.315 35.4421 75.315C29.9513 75.315 25.5 70.8637 25.5 65.3728C25.5 59.8819 29.9513 55.4307 35.4421 55.4307H35.6845C37.9051 55.4307 40.076 56.088 41.9236 57.3197L39.9914 60.2181C38.7159 59.3678 37.2173 58.9141 35.6845 58.9141H35.4421C31.8751 58.9141 28.9834 61.8057 28.9834 65.3728C28.9834 68.9399 31.8751 71.8316 35.4421 71.8316C37.5617 71.8316 39.5005 70.8228 40.7257 69.1987H37.9821V65.7153H43.8576C43.9861 65.6477 44.1086 65.5866 44.2089 65.5404C44.4803 65.419 44.9731 65.2405 45.2944 65.1406C45.623 65.0478 45.8872 64.955 45.8872 64.9336C45.8872 64.9122 45.7515 64.6338 45.5801 64.3125C45.4087 63.9842 45.1587 63.4488 45.0159 63.1132C44.8731 62.7777 44.666 62.1995 44.566 61.8283C44.4446 61.3928 44.366 60.8789 44.3374 60.4006C44.3089 59.7795 44.3303 59.5368 44.4517 59.0085C44.5374 58.6516 44.7302 58.1376 44.8731 57.8664C45.0373 57.5594 45.3302 57.1668 45.6373 56.8598C45.9158 56.5743 46.3443 56.2388 46.6014 56.096C46.8585 55.9532 47.2799 55.7605 47.5441 55.6605ZM62.0107 71.8775V71.8311H66.7278C70.2949 71.8311 73.1865 68.9394 73.1865 65.3723C73.1865 61.8052 70.2949 58.9135 66.7278 58.9135H62.2284V64.8265H62.2388V65.6416C62.0612 65.6977 61.8678 65.7738 61.7064 65.8545C61.4279 65.9901 60.9708 66.3113 60.6923 66.5541C60.4066 66.8039 59.9781 67.2322 59.7353 67.5035C59.4924 67.7748 59.1639 68.1817 58.9997 68.3958C58.8282 68.61 58.2926 69.3809 57.807 70.1019C57.3213 70.8229 56.8785 71.4654 56.8285 71.5297C56.75 71.6296 56.8071 71.701 57.2928 72.0793C57.5999 72.322 58.0284 72.6147 58.2426 72.7289C58.4569 72.8503 58.814 73.0074 59.0282 73.0787C59.2568 73.1501 59.6281 73.2072 59.921 73.2072C60.3138 73.2072 60.5137 73.1644 60.828 73.0145C61.0565 72.9074 61.3922 72.6718 61.5707 72.4862C61.7105 72.3419 61.8625 72.1337 62.0107 71.8775ZM48.4583 56.3744C48.5583 56.2602 48.7654 56.1031 48.9225 56.0317C49.1439 55.9318 49.3296 55.9033 49.7438 55.9247C50.158 55.9389 50.3509 55.9889 50.6008 56.1317C50.7794 56.2316 51.0508 56.4529 51.2008 56.6243C51.3579 56.7956 51.5721 57.1311 51.6864 57.3667C51.7935 57.6022 51.9364 58.0377 52.0006 58.3304C52.0863 58.7373 52.1078 59.1013 52.0792 59.8295C52.0506 60.5005 51.9935 60.9431 51.8935 61.2929C51.8078 61.5642 51.6435 61.9996 51.515 62.2495C51.3722 62.5279 51.1222 62.8491 50.8722 63.0847C50.6437 63.2989 50.4294 63.4702 50.3866 63.4702C50.3437 63.4702 50.0938 63.0918 49.8224 62.635C49.5438 62.171 49.151 61.4214 48.9368 60.9717C48.7225 60.5219 48.4369 59.8438 48.3154 59.4726C48.1226 58.9229 48.0798 58.6516 48.0512 58.0091C48.0226 57.3595 48.0369 57.1668 48.144 56.9027C48.2155 56.7242 48.3583 56.4886 48.4583 56.3744ZM45.8658 66.6112C45.9586 66.397 46.1086 66.1115 46.1943 65.983C46.28 65.8616 46.3657 65.7545 46.38 65.7545C46.4014 65.7545 46.7228 66.2257 47.087 66.8039C47.4584 67.3893 48.0012 68.1959 48.3012 68.61C48.6011 69.024 49.151 69.745 49.5224 70.2162C49.9009 70.6802 50.558 71.4369 50.9936 71.8795C51.4293 72.3292 52.0364 72.9074 52.3506 73.1644L52.5655 73.3401C52.794 73.5267 52.9852 73.6829 53.0291 73.7212C53.1219 73.7997 53.0933 73.8283 52.8505 73.9282C52.6934 73.9925 52.3077 74.1067 51.9935 74.1852C51.6078 74.278 51.165 74.3209 50.6365 74.3209C50.0723 74.3209 49.6867 74.278 49.2796 74.1781C48.9654 74.0924 48.4868 73.9068 48.2083 73.764C47.9369 73.6213 47.487 73.2929 47.2227 73.0359C46.9514 72.7789 46.5871 72.3506 46.4157 72.0722C46.2443 71.7938 46.0229 71.3298 45.9158 71.0371C45.8158 70.7444 45.6872 70.2661 45.6301 69.9806C45.573 69.7022 45.5301 69.1025 45.5301 68.6599C45.5301 68.2245 45.5658 67.6677 45.6087 67.4321C45.6515 67.1965 45.7658 66.8253 45.8658 66.6112Z" fill="black"/>
<path d="M31.3036 88.4897C30.8223 88.4897 30.4089 88.3934 30.0632 88.2009C29.7219 88.004 29.4594 87.7284 29.2756 87.374C29.0919 87.0152 29 86.5929 29 86.1073C29 85.6216 29.0919 85.2016 29.2756 84.8472C29.4594 84.4928 29.7219 84.2193 30.0632 84.0268C30.4089 83.8299 30.8223 83.7314 31.3036 83.7314C31.6274 83.7314 31.9184 83.7774 32.1765 83.8693C32.4391 83.9612 32.6644 84.0968 32.8525 84.2762L32.5769 84.9456C32.3712 84.7794 32.1722 84.6612 31.9796 84.5912C31.7915 84.5168 31.5749 84.4796 31.3299 84.4796C30.8617 84.4796 30.5029 84.6218 30.2535 84.9062C30.0085 85.1863 29.886 85.5866 29.886 86.1073C29.886 86.628 30.0085 87.0305 30.2535 87.3149C30.5029 87.5993 30.8617 87.7415 31.3299 87.7415C31.5749 87.7415 31.7915 87.7065 31.9796 87.6365C32.1722 87.5621 32.3712 87.4396 32.5769 87.2689L32.8525 87.9384C32.6644 88.1134 32.4391 88.249 32.1765 88.3453C31.9184 88.4416 31.6274 88.4897 31.3036 88.4897Z" fill="black"/>
<path d="M33.5424 86.1073C33.5424 85.6216 33.6299 85.2016 33.8049 84.8472C33.9843 84.4928 34.2402 84.2193 34.5728 84.0268C34.9053 83.8299 35.3013 83.7314 35.7607 83.7314C36.2157 83.7314 36.6095 83.8299 36.942 84.0268C37.2746 84.2193 37.5305 84.4928 37.7099 84.8472C37.8937 85.2016 37.9856 85.6194 37.9856 86.1007C37.9856 86.5864 37.8937 87.0086 37.7099 87.3674C37.5305 87.7218 37.2746 87.9974 36.942 88.1943C36.6095 88.3912 36.2157 88.4897 35.7607 88.4897C35.3013 88.4897 34.9053 88.3912 34.5728 88.1943C34.2446 87.9974 33.9908 87.7218 33.8115 87.3674C33.6321 87.0086 33.5424 86.5886 33.5424 86.1073ZM34.4284 86.1073C34.4284 86.628 34.54 87.0349 34.7631 87.328C34.9862 87.6212 35.3188 87.7677 35.7607 87.7677C36.1895 87.7677 36.5198 87.6212 36.7517 87.328C36.9836 87.0349 37.0996 86.628 37.0996 86.1073C37.0996 85.5822 36.9836 85.1753 36.7517 84.8865C36.5242 84.5978 36.1939 84.4534 35.7607 84.4534C35.3188 84.4534 34.9862 84.5978 34.7631 84.8865C34.54 85.1753 34.4284 85.5822 34.4284 86.1073Z" fill="black"/>
<path d="M39.0561 88.424V83.7971H39.6927L42.377 87.2689H42.2064V83.7971H42.9939V88.424H42.3573L39.6796 84.9522H39.8436V88.424H39.0561Z" fill="black"/>
<path d="M45.8218 88.4897C45.4499 88.4897 45.1065 88.4437 44.7914 88.3519C44.4808 88.2556 44.2139 88.1243 43.9907 87.9581L44.2533 87.2952C44.402 87.4002 44.5574 87.4899 44.7192 87.5643C44.8811 87.6343 45.054 87.689 45.2377 87.7284C45.4215 87.7634 45.6162 87.7809 45.8218 87.7809C46.1675 87.7809 46.4169 87.724 46.57 87.6102C46.7232 87.4965 46.7997 87.3477 46.7997 87.1639C46.7997 87.002 46.7472 86.8795 46.6422 86.7964C46.5372 86.7089 46.3491 86.6367 46.0778 86.5798L45.3362 86.4289C44.9118 86.3414 44.5945 86.1948 44.3845 85.9891C44.1745 85.7835 44.0695 85.5079 44.0695 85.1622C44.0695 84.8734 44.1461 84.6218 44.2992 84.4074C44.4523 84.193 44.6667 84.0268 44.9424 83.9086C45.218 83.7905 45.5396 83.7314 45.9072 83.7314C46.2353 83.7314 46.5394 83.7796 46.8194 83.8758C47.0995 83.9677 47.3335 84.1012 47.5217 84.2762L47.2592 84.9062C47.071 84.7487 46.8654 84.6328 46.6422 84.5584C46.4191 84.4796 46.1697 84.4403 45.894 84.4403C45.5834 84.4403 45.3406 84.5015 45.1655 84.624C44.9949 84.7422 44.9096 84.9062 44.9096 85.1163C44.9096 85.2781 44.9621 85.4072 45.0671 85.5035C45.1765 85.5997 45.3602 85.6741 45.6184 85.7266L46.3535 85.871C46.791 85.9585 47.1148 86.1029 47.3248 86.3042C47.5348 86.5011 47.6398 86.768 47.6398 87.1049C47.6398 87.3805 47.5654 87.6234 47.4167 87.8334C47.2679 88.039 47.0579 88.2009 46.7866 88.319C46.5153 88.4328 46.1938 88.4897 45.8218 88.4897Z" fill="black"/>
<path d="M50.5639 88.4897C49.9032 88.4897 49.411 88.3256 49.0872 87.9974C48.7678 87.6649 48.6081 87.1749 48.6081 86.5273V83.7971H49.4547V86.5208C49.4547 86.932 49.5422 87.2427 49.7172 87.4527C49.8966 87.6627 50.1788 87.7677 50.5639 87.7677C50.9314 87.7677 51.2071 87.6627 51.3908 87.4527C51.579 87.2427 51.673 86.932 51.673 86.5208V83.7971H52.5065V86.5273C52.5065 87.1749 52.3425 87.6649 52.0143 87.9974C51.6905 88.3256 51.2071 88.4897 50.5639 88.4897Z" fill="black"/>
<path d="M53.6894 88.424V83.7971H54.5361V87.7087H56.715V88.424H53.6894Z" fill="black"/>
<path d="M57.7959 88.424V84.4928H56.2667V83.7971H60.1717V84.4928H58.6425V88.424H57.7959Z" fill="black"/>
<path d="M60.9668 88.424V83.7971H61.8134V88.424H60.9668Z" fill="black"/>
<path d="M63.0288 88.424V83.7971H63.6654L66.3497 87.2689H66.179V83.7971H66.9666V88.424H66.33L63.6523 84.9522H63.8163V88.424H63.0288Z" fill="black"/>
<path d="M70.4115 88.4897C69.8908 88.4897 69.4532 88.3934 69.0988 88.2009C68.7444 88.0084 68.4775 87.7349 68.2981 87.3805C68.1188 87.0261 68.0291 86.6061 68.0291 86.1204C68.0291 85.6304 68.1253 85.2081 68.3178 84.8537C68.5103 84.495 68.786 84.2193 69.1448 84.0268C69.5079 83.8299 69.9433 83.7314 70.4508 83.7314C70.7877 83.7314 71.0831 83.7774 71.3368 83.8693C71.5906 83.9568 71.8138 84.0859 72.0063 84.2565L71.7241 84.9128C71.5841 84.8034 71.4506 84.7159 71.3237 84.6503C71.1968 84.5846 71.0656 84.5387 70.9299 84.5125C70.7943 84.4818 70.6368 84.4665 70.4574 84.4665C69.9499 84.4665 69.5648 84.6109 69.3023 84.8997C69.0441 85.1841 68.9151 85.5932 68.9151 86.127C68.9151 86.6608 69.0376 87.0677 69.2826 87.3477C69.532 87.6277 69.9214 87.7677 70.4508 87.7677C70.6302 87.7677 70.8096 87.7502 70.989 87.7152C71.1728 87.6802 71.3522 87.6299 71.5272 87.5643L71.3697 87.9187V86.5339H70.2868V85.917H72.0719V88.1418C71.8575 88.2512 71.6016 88.3365 71.304 88.3978C71.0065 88.4591 70.709 88.4897 70.4115 88.4897Z" fill="black"/>
<path d="M66.0239 4.96366C66.1736 4.503 66.8253 4.503 66.9749 4.96366L67.7342 7.30047C67.8012 7.50648 67.9931 7.64596 68.2097 7.64596H70.6668C71.1512 7.64596 71.3526 8.26577 70.9607 8.55047L68.9729 9.99469C68.7977 10.122 68.7243 10.3477 68.7913 10.5537L69.5505 12.8905C69.7002 13.3512 69.173 13.7342 68.7811 13.4495L66.7933 12.0053C66.6181 11.878 66.3808 11.878 66.2055 12.0053L64.2177 13.4495C63.8259 13.7342 63.2986 13.3512 63.4483 12.8905L64.2076 10.5537C64.2745 10.3477 64.2012 10.122 64.0259 9.9947L62.0381 8.55047C61.6463 8.26577 61.8477 7.64596 62.332 7.64596H64.7891C65.0057 7.64596 65.1977 7.50648 65.2646 7.30047L66.0239 4.96366Z" fill="black"/>
<path d="M78.0239 4.96366C78.1736 4.503 78.8253 4.503 78.9749 4.96366L79.7342 7.30047C79.8012 7.50648 79.9931 7.64596 80.2097 7.64596H82.6668C83.1512 7.64596 83.3526 8.26577 82.9607 8.55047L80.9729 9.99469C80.7977 10.122 80.7243 10.3477 80.7913 10.5537L81.5505 12.8905C81.7002 13.3512 81.173 13.7342 80.7811 13.4495L78.7933 12.0053C78.6181 11.878 78.3808 11.878 78.2055 12.0053L76.2177 13.4495C75.8259 13.7342 75.2986 13.3512 75.4483 12.8905L76.2076 10.5537C76.2745 10.3477 76.2012 10.122 76.0259 9.9947L74.0381 8.55047C73.6463 8.26577 73.8477 7.64596 74.332 7.64596H76.7891C77.0057 7.64596 77.1977 7.50648 77.2646 7.30047L78.0239 4.96366Z" fill="black"/>
<path d="M90.4265 4.86361C90.5819 4.41526 91.216 4.41526 91.3714 4.86361L92.2193 7.31005C92.289 7.51134 92.4787 7.64632 92.6917 7.64632H95.3633C95.8555 7.64632 96.0516 8.28251 95.6448 8.55956L93.5401 9.99316C93.3535 10.1203 93.2752 10.3568 93.3491 10.5701L94.166 12.9269C94.3237 13.382 93.8101 13.775 93.4121 13.5039L91.1804 11.9839C91.0106 11.8682 90.7873 11.8682 90.6175 11.9839L88.3858 13.5039C87.9878 13.775 87.4742 13.382 87.6319 12.9269L88.4487 10.5701C88.5227 10.3568 88.4444 10.1203 88.2578 9.99316L86.153 8.55956C85.7463 8.28251 85.9424 7.64632 86.4345 7.64632H89.1062C89.3192 7.64632 89.5089 7.51134 89.5786 7.31005L90.4265 4.86361Z" fill="black"/>
<path d="M102.824 4.96366C102.973 4.503 103.625 4.503 103.775 4.96366L104.534 7.30047C104.601 7.50648 104.793 7.64596 105.01 7.64596H107.467C107.951 7.64596 108.152 8.26577 107.761 8.55047L105.773 9.99469C105.597 10.122 105.524 10.3477 105.591 10.5537L106.35 12.8905C106.5 13.3512 105.973 13.7342 105.581 13.4495L103.593 12.0053C103.418 11.878 103.181 11.878 103.005 12.0053L101.018 13.4495C100.626 13.7342 100.098 13.3512 100.248 12.8905L101.007 10.5537C101.074 10.3477 101.001 10.122 100.826 9.9947L98.8379 8.55047C98.4461 8.26577 98.6475 7.64596 99.1318 7.64596H101.589C101.805 7.64596 101.997 7.50648 102.064 7.30047L102.824 4.96366Z" fill="black"/>
<path d="M114.824 4.96366C114.973 4.503 115.625 4.503 115.775 4.96366L116.534 7.30047C116.601 7.50648 116.793 7.64596 117.01 7.64596H119.467C119.951 7.64596 120.152 8.26577 119.761 8.55047L117.773 9.99469C117.597 10.122 117.524 10.3477 117.591 10.5537L118.35 12.8905C118.5 13.3512 117.973 13.7342 117.581 13.4495L115.593 12.0053C115.418 11.878 115.181 11.878 115.005 12.0053L113.018 13.4495C112.626 13.7342 112.098 13.3512 112.248 12.8905L113.007 10.5537C113.074 10.3477 113.001 10.122 112.826 9.9947L110.838 8.55047C110.446 8.26577 110.647 7.64596 111.132 7.64596H113.589C113.805 7.64596 113.997 7.50648 114.064 7.30047L114.824 4.96366Z" fill="black"/>
<path d="M100.5 25.501H148.5V27.501H100.5V25.501Z" fill="black"/>
<path d="M100.5 31.501H123.5V33.501H100.5V31.501Z" fill="black"/>
</svg>
