<svg width="214" height="30" viewBox="0 0 214 30" fill="none" xmlns="http://www.w3.org/2000/svg">
<g id="Logo hor">
<g id="Union">
<path fill-rule="evenodd" clip-rule="evenodd" d="M35.0734 0.215005C34.6069 0.300258 33.9016 0.492075 33.4893 0.651923C31.1695 1.51405 29.3736 3.26689 28.7914 5.64984C28.4687 7.02922 28.5793 8.49991 28.965 9.85916C29.1168 10.4133 29.4315 11.2765 29.6485 11.7773C29.8655 12.2782 30.2452 13.0774 30.5056 13.5676C30.6116 13.7628 30.7049 13.9293 30.7783 14.0602C30.8853 14.2509 30.9499 14.3662 30.9499 14.3852C30.0214 14.6893 28.8498 15.1649 27.8889 15.6617H18.9628V20.8617H23.1308C21.2695 23.2862 18.3241 24.7921 15.1041 24.7921C9.68498 24.7921 5.29194 20.4754 5.29194 15.1504C5.29194 9.82549 9.68498 5.50877 15.1041 5.50877H15.4722C17.8009 5.50877 20.0776 6.18611 22.0152 7.45544L24.9507 3.12878C22.1437 1.29 18.8457 0.30878 15.4722 0.30878H15.1041C6.76232 0.30878 0 6.95361 0 15.1504C0 23.3472 6.76232 29.9921 15.1041 29.9921C18.9678 29.9921 22.5726 28.5717 25.3181 26.1663C25.3751 26.23 25.4335 26.2931 25.493 26.3555C26.3076 27.2187 27.25 27.8976 28.314 28.4335C30.6052 29.5587 33.2605 30 35.8004 30C37.9836 30 40.1243 29.5565 42.1475 28.7532L43.0698 28.3696C44.1656 28.9663 44.9143 29.2754 45.4567 29.4565C46.5265 29.8202 47.7179 30.0109 48.8525 29.9848L62.6331 29.9913C70.9748 29.9913 77.7371 23.3465 77.7371 15.1497C77.7371 6.95285 70.9748 0.308013 62.6331 0.308014L50.5057 0.308014V14.3349H45.1855V15.4006C46.0724 15.4006 46.8192 15.5793 47.4965 16.1678C48.7946 17.2669 48.8336 19.1002 48.3971 20.6009C48.1223 21.5647 47.7153 22.4424 47.171 23.2864L46.8021 23.8725C45.869 22.9667 45.0879 22.1035 44.4586 21.3682C43.8293 20.6329 42.7443 19.2902 42.0499 18.3844C41.3447 17.4786 40.3139 16.0826 39.7497 15.294C39.629 15.1253 39.5032 14.9569 39.3767 14.7878C39.0722 14.3803 38.7641 13.9682 38.5156 13.5346C38.4259 13.3782 38.3501 13.2459 38.3501 13.216C38.3501 13.184 38.5562 13.1307 38.8058 13.0987C39.0662 13.0561 39.6629 12.8963 40.1403 12.7364C41.0891 12.4187 41.9773 12.0373 42.8202 11.5003C44.1356 10.6843 45.2774 9.39663 45.7714 7.94099C46.5548 5.78661 45.826 3.29857 43.9812 1.90939C41.4448 0.0825278 38.1167 -0.311258 35.0626 0.215005H35.0734ZM55.4669 24.7913V24.8606C54.2246 26.9699 51.8435 27.3011 49.7425 26.1317C49.417 25.9612 48.766 25.5243 48.2994 25.1619C47.9423 24.8885 47.5814 24.6112 47.4789 24.4958C47.7092 24.1639 47.9425 23.8338 48.1757 23.5037C48.4794 23.0739 48.7831 22.6441 49.0806 22.2101C49.8184 21.1338 50.6321 19.9829 50.8925 19.6632C51.6637 18.6752 52.5088 17.7346 53.464 16.9138C54.1544 16.3225 54.9366 15.8238 55.8134 15.5516V14.3349H55.7977V5.50801L62.6331 5.50801C68.0522 5.50801 72.4452 9.82472 72.4452 15.1497C72.4452 20.4746 68.0522 24.7913 62.6331 24.7913L56.2287 24.7906L56.2281 24.7913H55.4669ZM38.1331 1.35526C37.4349 0.963402 36.3232 0.877923 35.5834 1.20607C35.0205 1.45733 34.6265 1.95181 34.4007 2.50616C33.9392 3.62435 34.2703 5.24764 34.6611 6.34251C34.8456 6.89665 35.2796 7.90902 35.6051 8.58038C35.9306 9.25174 36.5273 10.3707 36.9505 11.0634C37.3627 11.7454 37.7425 12.3102 37.8076 12.3102C37.8727 12.3102 38.1982 12.0544 38.5454 11.7347C39.8928 10.4869 40.3029 8.63246 40.379 6.87534C40.43 5.59951 40.3262 4.3741 39.7823 3.19884C39.4186 2.4621 38.8712 1.76126 38.1331 1.35526ZM31.7208 15.7203C31.6991 15.7203 31.5689 15.8801 31.4387 16.0613C29.3344 19.1614 30.3063 24.0824 33.0011 26.5899C35.1939 28.6855 38.7804 29.0351 41.5508 27.922C41.9197 27.7728 41.9631 27.7302 41.822 27.6129C41.7555 27.5557 41.4654 27.3229 41.1186 27.0445L41.1181 27.0442L41.1179 27.0439L40.7913 26.7817C40.3139 26.3981 39.3917 25.5349 38.7298 24.8636C38.068 24.2028 37.0698 23.0733 36.4948 22.3806C35.9306 21.6773 35.0951 20.6009 34.6394 19.9829C34.1837 19.3648 33.3591 18.1606 32.795 17.2868C32.2416 16.4236 31.7534 15.7203 31.7208 15.7203Z" fill="black"/>
<path d="M97.2054 20.2697C98.0344 20.7566 99.0379 21 100.216 21C101.034 21 101.765 20.8783 102.408 20.6349C103.052 20.3804 103.614 20.0207 104.094 19.556L103.505 18.1784C102.981 18.6432 102.468 18.9751 101.967 19.1743C101.476 19.3734 100.903 19.473 100.249 19.473C99.0052 19.473 98.0562 19.0858 97.4018 18.3112C96.7473 17.5256 96.4201 16.4191 96.4201 14.9917C96.4201 13.5643 96.7473 12.4633 97.4018 11.6888C98.0562 10.9142 99.0052 10.527 100.249 10.527C100.903 10.527 101.476 10.6266 101.967 10.8257C102.468 11.0249 102.981 11.3513 103.505 11.805L104.094 10.4274C103.614 9.96266 103.052 9.60858 102.408 9.36515C101.765 9.12171 101.034 9 100.216 9C99.0379 9 98.0344 9.24343 97.2054 9.73029C96.3764 10.2172 95.7383 10.9087 95.2911 11.805C94.8548 12.7012 94.6366 13.7635 94.6366 14.9917C94.6366 16.2199 94.8548 17.2877 95.2911 18.195C95.7383 19.0913 96.3764 19.7829 97.2054 20.2697Z" fill="black"/>
<path fill-rule="evenodd" clip-rule="evenodd" d="M108.087 11.805C107.662 12.7012 107.449 13.7635 107.449 14.9917C107.449 16.2089 107.662 17.2711 108.087 18.1784C108.524 19.0747 109.145 19.7718 109.953 20.2697C110.76 20.7566 111.725 21 112.849 21C113.95 21 114.905 20.7566 115.712 20.2697C116.53 19.7718 117.157 19.0747 117.594 18.1784C118.041 17.2711 118.264 16.2033 118.264 14.9751C118.264 13.758 118.041 12.7012 117.594 11.805C117.157 10.9087 116.536 10.2172 115.728 9.73029C114.921 9.24343 113.961 9 112.849 9C111.725 9 110.754 9.24343 109.936 9.73029C109.129 10.2172 108.513 10.9087 108.087 11.805ZM110.149 18.3112C109.538 17.5145 109.233 16.408 109.233 14.9917C109.233 13.5643 109.538 12.4578 110.149 11.6722C110.76 10.8866 111.66 10.4938 112.849 10.4938C114.016 10.4938 114.91 10.8866 115.532 11.6722C116.165 12.4578 116.481 13.5643 116.481 14.9917C116.481 16.4191 116.165 17.5311 115.532 18.3278C114.899 19.1134 114.005 19.5062 112.849 19.5062C111.66 19.5062 110.76 19.1079 110.149 18.3112Z" fill="black"/>
<path d="M122.556 20.8506V9.14938H123.865L130.541 18.0325V9.14938H132.128V20.8506H130.835L124.143 11.9252V20.8506H122.556Z" fill="black"/>
<path d="M138.165 20.6515C138.918 20.8838 139.758 21 140.685 21C141.579 21 142.354 20.8617 143.008 20.5851C143.663 20.2974 144.165 19.899 144.514 19.39C144.874 18.8811 145.054 18.2891 145.054 17.6141C145.054 16.7732 144.792 16.1148 144.268 15.639C143.745 15.1521 142.932 14.7925 141.83 14.5602L140.047 14.2116C139.349 14.0678 138.847 13.8575 138.542 13.5809C138.247 13.3043 138.1 12.9225 138.1 12.4357C138.1 11.8271 138.334 11.3458 138.803 10.9917C139.283 10.6376 139.943 10.4606 140.783 10.4606C141.492 10.4606 142.125 10.5657 142.681 10.7759C143.237 10.9751 143.761 11.2905 144.252 11.722L144.808 10.4108C144.339 9.94606 143.761 9.59751 143.074 9.36515C142.387 9.12171 141.634 9 140.816 9C139.932 9 139.158 9.14384 138.492 9.43154C137.838 9.71922 137.325 10.1286 136.954 10.6598C136.584 11.1909 136.398 11.8105 136.398 12.5187C136.398 13.3928 136.654 14.0844 137.167 14.5934C137.691 15.0913 138.482 15.4509 139.54 15.6722L141.323 16.0373C142.076 16.1923 142.599 16.397 142.894 16.6515C143.199 16.9059 143.352 17.2656 143.352 17.7303C143.352 18.2725 143.134 18.7095 142.697 19.0415C142.272 19.3734 141.601 19.5394 140.685 19.5394C140.15 19.5394 139.654 19.4952 139.196 19.4066C138.749 19.3071 138.323 19.1632 137.92 18.9751C137.527 18.787 137.145 18.5491 136.774 18.2614L136.202 19.6224C136.758 20.065 137.413 20.408 138.165 20.6515Z" fill="black"/>
<path d="M153.788 21C152.184 21 150.99 20.5906 150.204 19.7718C149.43 18.953 149.043 17.7414 149.043 16.1369V9.14938H150.744V16.1037C150.744 17.2324 150.984 18.0844 151.464 18.6598C151.955 19.2241 152.73 19.5062 153.788 19.5062C154.791 19.5062 155.549 19.2241 156.062 18.6598C156.575 18.0844 156.831 17.2324 156.831 16.1037V9.14938H158.5V16.1369C158.5 17.7414 158.102 18.953 157.305 19.7718C156.509 20.5906 155.337 21 153.788 21Z" fill="black"/>
<path d="M163.103 9.14938V20.8506H170.466V19.3734H164.805V9.14938H163.103Z" fill="black"/>
<path d="M174.75 20.8506V10.5934H170.807V9.14938H180.395V10.5934H176.452V20.8506H174.75Z" fill="black"/>
<path d="M183.951 9.14938V20.8506H185.653V9.14938H183.951Z" fill="black"/>
<path d="M190.325 20.8506V9.14938H191.633L198.309 18.0325V9.14938H199.896V20.8506H198.604L191.912 11.9252V20.8506H190.325Z" fill="black"/>
<path d="M206.768 20.2863C207.641 20.7621 208.715 21 209.991 21C210.711 21 211.431 20.9225 212.151 20.7676C212.882 20.6127 213.498 20.408 214 20.1535V14.6266H209.73V15.9212H212.577V19.0706C212.231 19.197 211.877 19.2979 211.513 19.3734C211.033 19.462 210.548 19.5062 210.057 19.5062C208.639 19.5062 207.597 19.1245 206.932 18.361C206.277 17.5975 205.95 16.4855 205.95 15.0249C205.95 13.5864 206.294 12.4744 206.981 11.6888C207.668 10.9032 208.672 10.5104 209.991 10.5104C210.46 10.5104 210.869 10.5546 211.218 10.6432C211.568 10.7206 211.906 10.8479 212.233 11.0249C212.56 11.2019 212.898 11.4398 213.247 11.7386L213.853 10.3942C213.362 9.94053 212.806 9.59751 212.184 9.36515C211.562 9.12171 210.831 9 209.991 9C208.77 9 207.723 9.24343 206.85 9.73029C205.988 10.2172 205.323 10.9087 204.854 11.805C204.396 12.7012 204.167 13.769 204.167 15.0083C204.167 16.2476 204.385 17.3154 204.821 18.2116C205.257 19.1079 205.906 19.7994 206.768 20.2863Z" fill="black"/>
</g>
</g>
</svg>
