<svg width="198" height="102" viewBox="0 0 198 102" fill="none" xmlns="http://www.w3.org/2000/svg">
<g clip-path="url(#clip0_400_3208)">
<ellipse cx="97.9579" cy="48.45" rx="39.0789" ry="38.25" fill="#EBF3FF"/>
<path d="M110.855 53.6264L101.271 35.9794C101.271 35.9794 107.11 26.4057 119.896 21.3856C132.35 16.4959 131.549 24.0784 154.355 12.0556L162.326 31.4838C141.536 40.8023 142.405 36.2545 130.495 40.5534C120.967 43.9925 113.432 50.7017 110.855 53.6264Z" fill="white" stroke="black" stroke-width="1.5"/>
<path d="M113.673 45.2543L104.089 27.6073C104.089 27.6073 109.928 18.0336 122.714 13.0135C135.169 8.12382 134.368 15.7063 157.173 3.6835L165.144 23.1117C144.354 32.4303 145.223 27.8824 133.313 32.1813C123.785 35.6204 116.25 42.3296 113.673 45.2543Z" fill="white" stroke="black" stroke-width="1.5"/>
<ellipse cx="7.59113" cy="4.62706" rx="7.59113" ry="4.62706" transform="matrix(0.93069 -0.365809 0.379569 0.925164 124.604 19.5344)" fill="black" stroke="black" stroke-width="1.5"/>
<path d="M150.037 7.24561C151.231 10.1554 154.91 11.4486 158.254 10.1341C158.717 9.95228 159.149 9.73014 159.547 9.47458" stroke="black" stroke-width="1.5"/>
<path d="M108.542 22.2783C109.269 22.833 109.849 23.559 110.206 24.4299C111.382 27.2956 109.709 30.6606 106.463 32.0176" stroke="black" stroke-width="1.5"/>
<path d="M110.476 39.3658C111.217 38.2752 112.332 37.361 113.726 36.8133C116.619 35.6762 119.762 36.4903 121.331 38.6141" stroke="black" stroke-width="1.5"/>
<path d="M162.896 17.6372C162.429 17.7219 161.96 17.8538 161.497 18.0356C158.153 19.3501 156.409 22.7746 157.603 25.6844C157.672 25.8537 157.75 26.0176 157.836 26.1757" stroke="black" stroke-width="1.5"/>
<path d="M61.7068 60.315L50.5955 58.3592L44.7965 86.0714L72.125 91.3902C78.925 92.7136 85.9835 92.1891 92.5088 89.794C98.044 87.7623 103.535 85.6562 104.906 84.723C107.201 83.162 106.853 81.4402 106.393 80.7744C107.19 80.4513 107.822 80.1851 108.216 80.0022C110.959 78.7307 114.112 77.1805 114.014 75.7599C113.936 74.6235 112.991 74.1764 112.528 74.0949L114.918 73.1529C117.599 72.2213 121.98 69.8349 120.619 67.4901C119.333 65.2758 115.046 66.0415 113.288 66.5506C114.048 65.8097 114.55 64.8772 114.111 63.8887C113.3 62.0618 110.584 61.6226 108.333 62.17C104.706 63.0519 96.2783 64.96 89.9453 66.6521C83.6124 68.3442 76.307 68.6956 73.446 68.6598C76.8924 66.8104 84.7309 62.6467 88.5139 60.7865C93.2426 58.4611 93.6797 56.0821 92.8878 54.5393C92.2542 53.3051 89.383 53.4546 88.0266 53.6837L61.7068 60.315Z" fill="white"/>
<path d="M82.6139 77.2906V77.2906C89.3098 75.9009 95.8793 73.9475 102.252 71.4515L111.216 67.9402C111.814 67.6698 112.644 67.1791 113.288 66.5506M113.288 66.5506C114.048 65.8097 114.55 64.8772 114.111 63.8887C113.3 62.0618 110.584 61.6226 108.333 62.17C104.706 63.0519 96.2783 64.96 89.9453 66.6521C83.6124 68.3442 76.307 68.6956 73.446 68.6598C76.8924 66.8104 84.7309 62.6467 88.5139 60.7865C93.2426 58.4611 93.6797 56.0821 92.8878 54.5393C92.2542 53.3051 89.383 53.4546 88.0266 53.6837L61.7068 60.315L50.5955 58.3592L44.7965 86.0714L72.125 91.3902C78.925 92.7136 85.9835 92.1891 92.5088 89.794C98.044 87.7623 103.535 85.6562 104.906 84.723C107.201 83.162 106.853 81.4402 106.393 80.7744M113.288 66.5506C115.046 66.0415 119.333 65.2758 120.619 67.4901C121.98 69.8349 117.599 72.2213 114.918 73.1529L111.484 74.5062C102.707 77.9648 93.6945 80.7843 84.5169 82.9422L82.9412 83.3127M112.528 74.0949C112.991 74.1764 113.936 74.6235 114.014 75.7599C114.112 77.1805 110.959 78.7307 108.216 80.0022C107.822 80.1851 107.19 80.4513 106.393 80.7744M82.989 88.5432L92.0093 86.2716C95.6901 84.9053 102.758 82.2475 106.393 80.7744" stroke="black" stroke-width="1.5"/>
<ellipse cx="7.93923" cy="22.8493" rx="7.93923" ry="22.8493" transform="matrix(0.95104 0.309067 -0.321237 0.946999 38.7871 47.5884)" fill="black"/>
<mask id="path-12-inside-1_400_3208" fill="white">
<path fill-rule="evenodd" clip-rule="evenodd" d="M38.0313 55.7581L52.4181 58.2904L47.1728 86.8387L28.5101 83.5537C28.7011 79.4622 29.6808 74.4545 31.4551 69.2236C33.2748 63.8594 35.6209 59.1724 38.0313 55.7581Z"/>
</mask>
<path fill-rule="evenodd" clip-rule="evenodd" d="M38.0313 55.7581L52.4181 58.2904L47.1728 86.8387L28.5101 83.5537C28.7011 79.4622 29.6808 74.4545 31.4551 69.2236C33.2748 63.8594 35.6209 59.1724 38.0313 55.7581Z" fill="#F6F6F6"/>
<path d="M38.0313 55.7581L38.2914 54.2808L37.3545 54.1159L36.8059 54.893L38.0313 55.7581ZM52.4181 58.2904L53.8934 58.5615L54.1665 57.0751L52.6781 56.8131L52.4181 58.2904ZM47.1728 86.8387L46.9128 88.316L48.3791 88.5741L48.6481 87.1098L47.1728 86.8387ZM28.5101 83.5537L27.0117 83.4838L26.9502 84.8022L28.2501 85.031L28.5101 83.5537ZM31.4551 69.2236L32.8756 69.7055L31.4551 69.2236ZM37.7713 57.2354L52.158 59.7677L52.6781 56.8131L38.2914 54.2808L37.7713 57.2354ZM50.9428 58.0194L45.6975 86.5677L48.6481 87.1098L53.8934 58.5615L50.9428 58.0194ZM47.4329 85.3614L28.7701 82.0764L28.2501 85.031L46.9128 88.316L47.4329 85.3614ZM30.0085 83.6237C30.1917 79.6982 31.1373 74.8302 32.8756 69.7055L30.0346 68.7418C28.2243 74.0787 27.2105 79.2263 27.0117 83.4838L30.0085 83.6237ZM32.8756 69.7055C34.6585 64.4495 36.945 59.8978 39.2567 56.6232L36.8059 54.893C34.2968 58.4471 31.891 63.2693 30.0346 68.7418L32.8756 69.7055Z" fill="black" mask="url(#path-12-inside-1_400_3208)"/>
<path d="M83.547 54.6495C83.5171 55.4628 84.2585 57.0202 87.464 56.7423C90.6694 56.4645 92.5633 55.6517 93.1095 55.2801" stroke="black" stroke-width="1.5"/>
<path d="M107.369 69.3681C107.126 68.7405 107.118 67.2189 109.035 66.1528C110.951 65.0867 113.366 64.693 114.333 64.6294M114.161 73.3704C113.939 72.6296 113.973 70.8814 115.89 69.8153C117.806 68.7493 119.947 68.5414 120.778 68.5707M107.926 79.9917C107.935 79.2916 108.281 77.6684 109.592 76.7765C111.231 75.6615 113.786 75.4096 114.071 75.8106M101.406 86.212C101.258 85.7181 101.441 84.4638 103.357 83.3977C105.274 82.3317 106.406 82.414 106.732 82.5884" stroke="black" stroke-width="1.5"/>
<path d="M61.8641 21.0274C64.2403 21.0274 67.0899 20.3624 69.1887 17.4467C71.2874 14.531 71.3349 11.7314 71.2114 9.64067C71.3349 11.7314 71.0457 15.2439 73.4739 17.9033C75.9022 20.5628 78.2776 21.1275 80.0459 21.0274C78.6312 21.1075 75.9351 21.1203 73.8034 23.4785C71.6717 25.8367 71.1089 29.9241 71.0939 31.673C70.999 28.0657 69.6406 21.0274 61.8641 21.0274Z" stroke="black" stroke-width="1.5"/>
<path d="M149.124 69.4999C147.562 69.4999 145.688 69.0626 144.308 67.1454C142.928 65.2281 142.897 63.3872 142.978 62.0125C142.897 63.3872 143.087 65.6969 141.49 67.4456C139.894 69.1944 138.332 69.5657 137.169 69.4999C138.099 69.5526 139.872 69.561 141.274 71.1116C142.675 72.6623 143.046 75.3499 143.055 76.4999C143.118 74.1279 144.011 69.4999 149.124 69.4999Z" stroke="black" stroke-width="1.5"/>
</g>
<defs>
<clipPath id="clip0_400_3208">
<rect width="198" height="102" fill="white"/>
</clipPath>
</defs>
</svg>
