<svg width="283" height="738" viewBox="0 0 283 738" fill="none" xmlns="http://www.w3.org/2000/svg">
<path d="M375.765 592.72C314.729 576.008 302.454 626.485 294.873 657.307C287.291 688.128 255.398 642.308 243.243 634.907C235.736 631.202 193.157 705.52 43.1148 694.88" stroke="black" stroke-width="1.5"/>
<ellipse cx="40.6919" cy="694.693" rx="2.60942" ry="2.61333" stroke="black" stroke-width="1.5"/>
<rect width="56.9063" height="56.9838" rx="10" transform="matrix(0.977121 -0.212686 0.212079 0.977253 109.521 665.073)" fill="#F6F6F6" stroke="black" stroke-width="1.5"/>
<rect width="56.9144" height="56.9757" rx="10" transform="matrix(0.926711 0.375776 -0.37481 0.927102 221.916 603.92)" fill="#EBF3FF" stroke="black" stroke-width="1.5"/>
<path d="M175.178 670.423L138.003 661.824C134.952 684.053 122.823 705.538 117.14 713.501C126.486 716.394 147.244 722.766 155.507 725.12C167.989 703.366 173.822 679.591 175.178 670.423Z" fill="white" stroke="black" stroke-width="1.5"/>
<path d="M156.13 702.015L148.734 715.544L144.762 714.405L142.114 713.646L138.407 712.584L135.759 711.824L132.184 710.8L136.154 703.968L139.596 704.948L135.759 711.824L138.407 712.584L144.568 702.239L148.011 703.22L142.114 713.646L144.762 714.405L152.151 701.007L156.13 702.015Z" fill="black"/>
<path d="M134.843 697.983C133.577 701.793 130.159 707.432 128.609 709.775L132.184 710.8M151.383 716.303L148.734 715.544M148.734 715.544L156.13 702.015L152.151 701.007L144.762 714.405M148.734 715.544L144.762 714.405M144.762 714.405L142.114 713.646M142.114 713.646L148.011 703.22L144.568 702.239L138.407 712.584M142.114 713.646L138.407 712.584M138.407 712.584L135.759 711.824M135.759 711.824L139.596 704.948L136.154 703.968L132.184 710.8M135.759 711.824L132.184 710.8" stroke="black" stroke-width="1.5"/>
<path d="M140.465 671.634L167.003 678.082" stroke="black" stroke-width="1.5"/>
<path d="M138.453 679.602L164.469 685.756" stroke="black" stroke-width="1.5"/>
<path d="M136.467 687.035L162.201 693.443" stroke="black" stroke-width="1.5"/>
<path d="M229.882 658.969L220.257 640.835C220.257 640.835 226.121 630.998 238.962 625.839C251.469 620.815 250.665 628.606 273.568 616.252L281.573 636.216C260.694 645.791 261.567 641.118 249.606 645.536C240.037 649.069 232.47 655.964 229.882 658.969Z" fill="white" stroke="black" stroke-width="1.5"/>
<path d="M232.71 650.366L223.085 632.232C223.085 632.232 228.949 622.395 241.79 617.236C254.297 612.212 253.493 620.003 276.396 607.649L284.401 627.613C263.522 637.188 264.395 632.515 252.434 636.932C242.865 640.466 235.298 647.361 232.71 650.366Z" fill="white" stroke="black" stroke-width="1.5"/>
<ellipse cx="7.64745" cy="4.73926" rx="7.64745" ry="4.73926" transform="matrix(0.927781 -0.373126 0.372165 0.928166 243.692 623.937)" fill="black" stroke="black" stroke-width="1.5"/>
<path d="M269.231 611.308C270.43 614.298 274.125 615.627 277.483 614.276C277.948 614.09 278.382 613.861 278.781 613.599" stroke="black" stroke-width="1.5"/>
<path d="M227.559 626.756C228.289 627.326 228.871 628.072 229.23 628.967C230.411 631.912 228.73 635.37 225.471 636.764" stroke="black" stroke-width="1.5"/>
<path d="M229.499 644.315C230.243 643.194 231.363 642.255 232.763 641.692C235.668 640.523 238.825 641.36 240.4 643.542" stroke="black" stroke-width="1.5"/>
<path d="M282.146 621.988C281.676 622.075 281.205 622.21 280.74 622.397C277.381 623.748 275.631 627.267 276.83 630.257C276.899 630.431 276.977 630.599 277.064 630.762" stroke="black" stroke-width="1.5"/>
<path d="M2.34226 37.486C4.62247 36.3211 5.96917 34.1682 7.25883 30.9791C8.27791 33.5214 9.58914 36.0477 12.3041 37.4573C9.76027 39.1564 8.64868 40.257 7.10965 44.2394C7.00983 42.426 5.05723 38.8956 2.34226 37.486Z" stroke="black" stroke-width="1.5"/>
<path d="M19.0843 20.7896C25.2257 17.1979 28.7673 10.6122 32.093 0.869363C35.0167 8.59895 38.735 16.2742 46.2108 20.5207C39.3826 25.7453 36.4198 29.1197 32.4613 41.2846C32.0836 35.7598 26.56 25.0362 19.0843 20.7896Z" stroke="black" stroke-width="1.5"/>
</svg>
