<svg width="474" height="735" viewBox="0 0 474 735" fill="none" xmlns="http://www.w3.org/2000/svg">
<path d="M585.517 519.028C486.425 491.937 466.497 573.765 454.187 623.729C441.878 673.694 390.099 599.416 370.366 587.417C358.178 581.412 289.05 701.888 45.4539 684.639" stroke="black" stroke-width="1.5"/>
<circle cx="41.5231" cy="684.337" r="4.23645" stroke="black" stroke-width="1.5"/>
<rect x="153.268" y="636.32" width="92.3821" height="92.3821" rx="10" transform="rotate(-12.262 153.268 636.32)" fill="#F6F6F6" stroke="black" stroke-width="1.5"/>
<rect x="335.74" y="537.184" width="92.3821" height="92.3821" rx="10" transform="rotate(22.0424 335.74 537.184)" fill="#EBF3FF" stroke="black" stroke-width="1.5"/>
<path d="M259.863 644.993L199.508 631.053C194.555 667.089 174.864 701.917 165.637 714.827C180.811 719.515 214.511 729.846 227.926 733.661C248.192 698.396 257.661 659.856 259.863 644.993Z" fill="white" stroke="black" stroke-width="1.5"/>
<path d="M228.938 696.207L216.932 718.138L210.483 716.292L206.184 715.062L200.165 713.339L195.866 712.109L190.062 710.447L196.507 699.372L202.096 700.962L195.866 712.109L200.165 713.339L210.167 696.57L215.757 698.16L206.184 715.062L210.483 716.292L222.479 694.573L228.938 696.207Z" fill="black"/>
<path d="M194.378 689.67C192.323 695.847 186.775 704.988 184.258 708.786L190.062 710.447M221.231 719.369L216.932 718.138M216.932 718.138L228.938 696.207L222.479 694.573L210.483 716.292M216.932 718.138L210.483 716.292M210.483 716.292L206.184 715.062M206.184 715.062L215.757 698.16L210.167 696.57L200.165 713.339M206.184 715.062L200.165 713.339M200.165 713.339L195.866 712.109M195.866 712.109L202.096 700.962L196.507 699.372L190.062 710.447M195.866 712.109L190.062 710.447" stroke="black" stroke-width="1.5"/>
<path d="M203.506 646.955L246.591 657.409" stroke="black" stroke-width="1.5"/>
<path d="M200.239 659.874L242.476 669.849" stroke="black" stroke-width="1.5"/>
<path d="M197.015 671.922L238.795 682.311" stroke="black" stroke-width="1.5"/>
<path d="M348.674 626.425L333.048 597.028C333.048 597.028 342.568 581.081 363.416 572.718C383.722 564.573 382.416 577.204 419.599 557.176L432.595 589.54C398.699 605.062 400.115 597.487 380.697 604.648C365.161 610.377 352.876 621.553 348.674 626.425Z" fill="white" stroke="black" stroke-width="1.5"/>
<path d="M353.266 612.478L337.64 583.082C337.64 583.082 347.16 567.134 368.008 558.772C388.314 550.627 387.007 563.257 424.191 543.23L437.187 575.593C403.29 591.116 404.707 583.54 385.288 590.701C369.753 596.43 357.467 607.606 353.266 612.478Z" fill="white" stroke="black" stroke-width="1.5"/>
<ellipse cx="385.478" cy="572.14" rx="12.4132" ry="7.68436" transform="rotate(-21.8789 385.478 572.14)" fill="black" stroke="black" stroke-width="1.5"/>
<path d="M412.558 549.162C414.505 554.009 420.503 556.164 425.956 553.974C426.71 553.671 427.414 553.301 428.063 552.875" stroke="black" stroke-width="1.5"/>
<path d="M344.904 574.205C346.089 575.129 347.034 576.338 347.617 577.789C349.534 582.563 346.806 588.168 341.513 590.428" stroke="black" stroke-width="1.5"/>
<path d="M348.053 602.669C349.261 600.852 351.08 599.329 353.352 598.417C358.069 596.523 363.194 597.879 365.752 601.417" stroke="black" stroke-width="1.5"/>
<path d="M433.526 566.475C432.763 566.616 431.998 566.836 431.244 567.138C425.791 569.328 422.949 575.033 424.895 579.88C425.008 580.162 425.135 580.435 425.275 580.698" stroke="black" stroke-width="1.5"/>
<path d="M380.439 50.0367C383.361 48.544 385.086 45.7851 386.739 41.6984C388.045 44.9563 389.725 48.1936 393.204 50C389.944 52.1773 388.52 53.5876 386.548 58.6909C386.42 56.3671 383.918 51.8431 380.439 50.0367Z" stroke="black" stroke-width="1.5"/>
<path d="M401.893 28.641C409.763 24.0384 414.301 15.5991 418.563 3.11411C422.309 13.0192 427.074 22.8547 436.654 28.2964C427.904 34.9915 424.107 39.3156 419.035 54.9044C418.551 47.8246 411.473 34.0828 401.893 28.641Z" stroke="black" stroke-width="1.5"/>
</svg>
